<svg xmlns="http://www.w3.org/2000/svg" width="540" height="520"><g style="fill:#fff;fill-opacity:1"><path d="M258.412 411.8 285.4 590.944l-26.662 35.4-26.987-178.93z" clip-rule="evenodd" style="fill:#fff;fill-opacity:1;fill-rule:evenodd" transform="matrix(2.33052 0 0 2.33052 -520.099 -949.707)"/><path d="M312.061 411.8c-8.886 11.87-17.826 23.797-26.713 35.668 7.95 53.283 17.19 117.023 26.937 178.876l26.712-35.4 17.883-23.734 9.053 59.134 26.713-35.4 17.883-23.734 9.165 59.134 26.6-35.4L419.36 411.8l-26.713 35.668 12.63 84.879-17.771 24.002-9.836 12.873 9.612-14.08L365.71 411.8l-26.713 35.668 12.518 85.013-17.66 23.868-9.835 12.873 9.612-14.08z" style="fill:#fff;fill-opacity:1;fill-rule:evenodd" transform="matrix(2.33052 0 0 2.33052 -520.099 -949.707)"/></g></svg>